<?xml version="1.0" ?><!DOCTYPE svg  PUBLIC '-//W3C//DTD SVG 1.1//EN'  'http://www.w3.org/Graphics/SVG/1.1/DTD/svg11.dtd'><svg enable-background="new 0 0 100 100" height="100px" id="Layer_1" version="1.1" viewBox="0 0 100 100" width="100px" xml:space="preserve" xmlns="http://www.w3.org/2000/svg" xmlns:xlink="http://www.w3.org/1999/xlink"><g><path d="M49.679,3.931c-25.35,0-45.974,20.624-45.974,45.974s20.624,45.974,45.974,45.974   c25.351,0,45.975-20.624,45.975-45.974S75.029,3.931,49.679,3.931z M49.679,93.878c-24.247,0-43.974-19.727-43.974-43.974   c0-24.247,19.727-43.974,43.974-43.974c24.248,0,43.975,19.727,43.975,43.974C93.653,74.152,73.927,93.878,49.679,93.878z" fill="#E04A3F"/><path d="M77.078,29.17h-5.444v-5.444c0-1.104-0.896-2-2-2h-3.721c-1.104,0-2,0.896-2,2v5.444H58.47   c-1.104,0-2,0.896-2,2v3.722c0,1.104,0.896,2,2,2h5.443v5.444c0,1.104,0.896,2,2,2h3.721c1.104,0,2-0.896,2-2v-5.444h5.444   c1.104,0,2-0.896,2-2V31.17C79.078,30.065,78.183,29.17,77.078,29.17z M77.078,34.892h-7.444v7.444h-3.721v-7.444H58.47V31.17   h7.443v-7.444h3.721v7.444h7.444V34.892z" fill="#E04A3F"/><path d="M51.731,53.442l-0.365-0.272c-2.12-1.578-3.326-2.662-3.587-3.225c0.006-0.844,0.119-1.283,2.472-3.12   c3.622-2.832,5.536-6.359,5.536-10.201c0-2.707-0.665-5.179-1.872-7.18c0.37-0.089,0.711-0.284,0.979-0.564l3.564-3.741   c0.367-0.363,0.596-0.866,0.596-1.422c0-1.104-0.894-2-1.998-2h-0.005H40.915c-9.221,0-17.011,6.722-17.011,14.678   c0,7.949,5.276,13.618,12.977,14.154c-0.058,0.377-0.086,0.752-0.086,1.123c0,0.858,0.152,1.602,0.402,2.257   c-4.465,0.202-8.618,1.765-11.784,4.452c-3.279,2.782-5.159,6.488-5.159,10.168c0,6.901,8.11,11.909,19.284,11.909   c5.464,0,10.254-1.454,13.851-4.205c3.436-2.628,5.406-6.257,5.406-9.956C58.795,60.506,57.145,57.503,51.731,53.442z    M39.538,78.457c-9.373,0-17.284-3.813-17.284-9.909c0-6.192,6.562-12.643,15.936-12.643c1.021,0,1.957-0.026,2.928-0.026   c-1.285-1.248-2.322-2.324-2.322-4.208c0-1.12,0.357-2.188,0.857-3.146c-0.51,0.037-1.029,0.064-1.564,0.064   c-7.698,0-12.184-5.409-12.184-12.196c0-6.64,6.824-12.678,15.011-12.678c4.221,0,16.136,0,16.136,0L53.445,27.5H49.21   c2.989,1.712,4.577,5.238,4.577,9.124c0,3.567-1.976,6.442-4.767,8.625c-2.724,2.126-3.241,3.017-3.241,4.828   c0,1.543,3.256,3.843,4.752,4.966c5.21,3.909,6.264,6.366,6.264,11.254C56.795,72.394,50.224,78.457,39.538,78.457z" fill="#E04A3F"/><path d="M44.514,58.485c-1.279-0.416-2.688-0.658-4.199-0.674c-0.056,0-0.109-0.001-0.165-0.001   c-6.408,0-11.805,4.136-11.805,8.923c0,4.927,4.679,9.028,11.157,9.028c9.109,0,12.284-3.85,12.284-8.775   c0-0.596-0.073-1.178-0.206-1.741C50.867,62.457,48.031,60.929,44.514,58.485z M39.502,73.761c-5.135,0-9.157-3.087-9.157-7.028   c0-3.688,4.582-6.922,9.805-6.923l0.143,0.001c1.159,0.012,2.278,0.178,3.335,0.492c0.426,0.293,0.84,0.574,1.242,0.845   c2.526,1.708,4.352,2.942,4.773,4.592c0.092,0.393,0.144,0.824,0.144,1.245C49.786,71.545,46.422,73.761,39.502,73.761z" fill="#E04A3F"/><path d="M41.426,46.127c4.211,0,6.617-3.647,5.881-9.261c-0.752-5.711-4.473-10.396-8.82-10.526   c-0.063-0.002-0.126-0.003-0.188-0.003c-4.243,0-7.064,4.326-6.325,9.957c0.751,5.708,4.883,9.699,9.233,9.83   C41.28,46.126,41.354,46.127,41.426,46.127z M33.955,36.034c-0.341-2.601,0.188-4.917,1.45-6.357   c0.779-0.889,1.753-1.339,2.893-1.339l0.129,0.002c3.231,0.097,6.261,3.957,6.897,8.789c0.335,2.561-0.064,4.638-1.127,5.849   c-0.67,0.764-1.603,1.151-2.771,1.151l-0.16-0.002C37.691,44.018,34.549,40.539,33.955,36.034z" fill="#E04A3F"/></g></svg>